<svg xmlns="http://www.w3.org/2000/svg">
    <defs>
        <symbol id="home">
            <path fill-rule="evenodd" clip-rule="evenodd" d="M11.3861 1.21065C11.7472 0.929784 12.2528 0.929784 12.6139 1.21065L21.6139 8.21065C21.8575 8.4001
                22 8.69141 22 9V20C22 20.7957 21.6839 21.5587 21.1213 22.1213C20.5587 22.6839 19.7957 23 19 23H5C4.20435 23 3.44129 22.6839 2.87868 22.1213C2.31607
                21.5587 2 20.7957 2 20V9C2 8.69141 2.14247 8.4001 2.38606 8.21065L11.3861 1.21065ZM4 9.48908V20C4 20.2652 4.10536 20.5196 4.29289 20.7071C4.48043
                20.8946 4.73478 21 5 21H19C19.2652 21 19.5196 20.8946 19.7071 20.7071C19.8946 20.5196 20 20.2652 20 20V9.48908L12 3.26686L4 9.48908Z" fill="currentColor" />
            <path fill-rule="evenodd" clip-rule="evenodd" d="M8 12C8 11.4477 8.44772 11 9 11H15C15.5523 11 16 11.4477
                16 12V22C16 22.5523 15.5523 23 15 23C14.4477 23 14 22.5523 14 22V13H10V22C10 22.5523 9.55228 23 9 23C8.44772 23 8 22.5523 8 22V12Z" fill="currentColor" />
        </symbol>
        <symbol id="check">
            <path
                d="M10.62,14l-1,2H19a1,1,0,0,1,0,2H9.62a2,2,0,0,1-1.79-2.89L8.9,13,5.32,4H3A1,1,0,0,1,3,2H5.32A2,2,0,0,1,7.18,3.26L7.88,5H20.8l.09,0a1,1,0,0,1,.48.05,1,1,0,0,1,.56,1.3l-2.8,7a1,1,0,0,1-.93.63Zm-.12,5A1.5,1.5,0,1,0,12,20.5,1.5,1.5,0,0,0,10.5,19Zm6,0A1.5,1.5,0,1,0,18,20.5,1.5,1.5,0,0,0,16.5,19Z"
                stroke="none" fill="currentColor" />
        </symbol>
    </defs>
</svg>
